<svg width="60" height="528" viewBox="0 0 60 528" fill="none" xmlns="http://www.w3.org/2000/svg">
<g clip-path="url(#clip0_12_1013)">
<path d="M38.7957 477.9C38.7957 483.319 34.5903 487.701 29.3781 487.701C24.1658 487.701 19.9605 483.319 19.9605 477.9C19.9605 472.482 29.3781 468.1 29.3781 468.1C29.3781 468.1 38.7957 472.482 38.7957 477.9Z" fill="#333333"/>
<path d="M38.7957 477.9C38.7957 483.319 34.5903 487.701 29.3781 487.701C24.1658 487.701 19.9605 483.319 19.9605 477.9C19.9605 472.482 29.3781 468.1 29.3781 468.1C29.3781 468.1 38.7957 472.482 38.7957 477.9Z" fill="black" fill-opacity="0.6"/>
<path d="M34.0276 507.184V504.964H24.7581V507.184C23.8104 506.089 23.2477 504.697 23.2477 503.128C23.2477 502.062 23.84 501.055 24.6989 500.197C26.535 498.272 29.4373 496.969 29.4373 496.969C29.4373 496.969 32.3395 498.272 34.1757 500.197C35.0049 501.085 35.6268 502.062 35.6268 503.128C35.5676 504.668 34.9753 506.089 34.0276 507.184Z" fill="#333333"/>
<path d="M34.0276 507.184V504.964H24.7581V507.184C23.8104 506.089 23.2477 504.697 23.2477 503.128C23.2477 502.062 23.84 501.055 24.6989 500.197C26.535 498.272 29.4373 496.969 29.4373 496.969C29.4373 496.969 32.3395 498.272 34.1757 500.197C35.0049 501.085 35.6268 502.062 35.6268 503.128C35.5676 504.668 34.9753 506.089 34.0276 507.184Z" fill="black" fill-opacity="0.6"/>
<path d="M39.7433 490.958C39.7433 496.673 35.0938 501.322 29.3781 501.322C23.6624 501.322 19.0128 496.673 19.0128 490.958C19.0128 485.244 23.6624 480.595 29.3781 480.595C35.0938 480.595 39.7433 485.244 39.7433 490.958Z" fill="#333333"/>
<path d="M39.7433 490.958C39.7433 496.673 35.0938 501.322 29.3781 501.322C23.6624 501.322 19.0128 496.673 19.0128 490.958C19.0128 485.244 23.6624 480.595 29.3781 480.595C35.0938 480.595 39.7433 485.244 39.7433 490.958Z" fill="black" fill-opacity="0.6"/>
<path d="M21.2636 486.576C20.3752 485.244 19.4867 483.881 18.5983 482.519C17.7098 481.157 16.8214 479.795 15.9625 478.433L10.7503 470.202L10.3949 469.669L10.5134 469.136C11.1649 465.879 11.846 462.622 12.5568 459.365C12.9122 457.736 13.2972 456.108 13.7414 454.509C14.156 452.91 14.6298 451.281 15.1925 449.712C15.2221 451.4 15.1629 453.058 15.0445 454.746C14.9556 456.404 14.8075 458.062 14.6298 459.72C14.2745 463.036 13.8895 466.323 13.5045 469.639L13.2676 468.573L18.8352 476.538C19.7829 477.871 20.6713 479.203 21.5894 480.536C22.5074 481.868 23.4255 483.2 24.3139 484.562L21.2636 486.576Z" fill="#333333"/>
<path d="M21.2636 486.576C20.3752 485.244 19.4867 483.881 18.5983 482.519C17.7098 481.157 16.8214 479.795 15.9625 478.433L10.7503 470.202L10.3949 469.669L10.5134 469.136C11.1649 465.879 11.846 462.622 12.5568 459.365C12.9122 457.736 13.2972 456.108 13.7414 454.509C14.156 452.91 14.6298 451.281 15.1925 449.712C15.2221 451.4 15.1629 453.058 15.0445 454.746C14.9556 456.404 14.8075 458.062 14.6298 459.72C14.2745 463.036 13.8895 466.323 13.5045 469.639L13.2676 468.573L18.8352 476.538C19.7829 477.871 20.6713 479.203 21.5894 480.536C22.5074 481.868 23.4255 483.2 24.3139 484.562L21.2636 486.576Z" fill="black" fill-opacity="0.6"/>
<path d="M21.7966 490.484C20.3159 489.803 18.8648 489.063 17.4136 488.353C15.9625 487.642 14.5114 486.902 13.0602 486.161L8.73643 483.97L4.41264 481.72L3.82034 481.394L3.70188 480.832L2.63574 476.094C2.28036 474.525 1.92498 472.926 1.59921 471.357C0.94768 468.188 0.35538 464.991 0 461.763C1.30306 464.754 2.39882 467.803 3.40573 470.883C3.90918 472.423 4.41264 473.962 4.88648 475.502L6.33761 480.121L5.59724 479.233L10.0691 481.157L14.5114 483.112C15.9921 483.763 17.4729 484.414 18.9536 485.096C20.4344 485.777 21.9151 486.428 23.3662 487.139L21.7966 490.484Z" fill="#333333"/>
<path d="M21.7966 490.484C20.3159 489.803 18.8648 489.063 17.4136 488.353C15.9625 487.642 14.5114 486.902 13.0602 486.161L8.73643 483.97L4.41264 481.72L3.82034 481.394L3.70188 480.832L2.63574 476.094C2.28036 474.525 1.92498 472.926 1.59921 471.357C0.94768 468.188 0.35538 464.991 0 461.763C1.30306 464.754 2.39882 467.803 3.40573 470.883C3.90918 472.423 4.41264 473.962 4.88648 475.502L6.33761 480.121L5.59724 479.233L10.0691 481.157L14.5114 483.112C15.9921 483.763 17.4729 484.414 18.9536 485.096C20.4344 485.777 21.9151 486.428 23.3662 487.139L21.7966 490.484Z" fill="black" fill-opacity="0.6"/>
<path d="M22.7147 493.83C21.6486 494.156 20.5824 494.452 19.5163 494.748C18.4501 495.044 17.384 495.34 16.3179 495.637C14.1856 496.199 12.0237 496.791 9.8914 497.324L10.8983 496.288L9.18064 502.151L7.43335 507.984C6.84105 509.938 6.21914 511.863 5.53799 513.787C4.85685 515.712 4.1757 517.637 3.3761 519.532C3.61302 517.489 3.90917 515.475 4.26455 513.462C4.61993 511.448 5.00492 509.464 5.41953 507.48L6.69298 501.529L8.02565 495.577L8.20334 494.837L9.03256 494.541C11.1352 493.801 13.2379 493.12 15.3406 492.409C16.3771 492.054 17.4432 491.728 18.5094 491.373C19.5755 491.047 20.612 490.692 21.6782 490.396L22.7147 493.83Z" fill="#333333"/>
<path d="M22.7147 493.83C21.6486 494.156 20.5824 494.452 19.5163 494.748C18.4501 495.044 17.384 495.34 16.3179 495.637C14.1856 496.199 12.0237 496.791 9.8914 497.324L10.8983 496.288L9.18064 502.151L7.43335 507.984C6.84105 509.938 6.21914 511.863 5.53799 513.787C4.85685 515.712 4.1757 517.637 3.3761 519.532C3.61302 517.489 3.90917 515.475 4.26455 513.462C4.61993 511.448 5.00492 509.464 5.41953 507.48L6.69298 501.529L8.02565 495.577L8.20334 494.837L9.03256 494.541C11.1352 493.801 13.2379 493.12 15.3406 492.409C16.3771 492.054 17.4432 491.728 18.5094 491.373C19.5755 491.047 20.612 490.692 21.6782 490.396L22.7147 493.83Z" fill="black" fill-opacity="0.6"/>
<path d="M25.2616 495.903C24.4324 497.68 23.5439 499.397 22.6555 501.144L19.9605 506.355L20.0494 505.23C20.5232 507.096 20.9674 508.991 21.4116 510.856C21.8559 512.721 22.3001 514.616 22.7147 516.511C23.1589 518.406 23.5439 520.301 23.9289 522.196C24.2843 524.121 24.6101 526.016 24.7878 527.97C23.9289 526.194 23.1885 524.388 22.5074 522.581C21.8263 520.775 21.1747 518.939 20.5528 517.104C19.9309 515.268 19.309 513.432 18.7167 511.596C18.1244 509.76 17.5025 507.925 16.9398 506.059L16.7621 505.526L17.0286 504.934L19.4274 499.575C20.2567 497.798 21.0563 496.022 21.9151 494.275L25.2616 495.903Z" fill="#333333"/>
<path d="M25.2616 495.903C24.4324 497.68 23.5439 499.397 22.6555 501.144L19.9605 506.355L20.0494 505.23C20.5232 507.096 20.9674 508.991 21.4116 510.856C21.8559 512.721 22.3001 514.616 22.7147 516.511C23.1589 518.406 23.5439 520.301 23.9289 522.196C24.2843 524.121 24.6101 526.016 24.7878 527.97C23.9289 526.194 23.1885 524.388 22.5074 522.581C21.8263 520.775 21.1747 518.939 20.5528 517.104C19.9309 515.268 19.309 513.432 18.7167 511.596C18.1244 509.76 17.5025 507.925 16.9398 506.059L16.7621 505.526L17.0286 504.934L19.4274 499.575C20.2567 497.798 21.0563 496.022 21.9151 494.275L25.2616 495.903Z" fill="black" fill-opacity="0.6"/>
<path d="M35.6861 484.562C36.5745 483.2 37.4926 481.868 38.4107 480.536C39.3287 479.203 40.2172 477.841 41.1649 476.538L46.7325 468.573L46.4956 469.639C46.081 466.353 45.7256 463.036 45.3702 459.72C45.1925 458.062 45.0444 456.404 44.9556 454.746C44.8667 453.087 44.7779 451.4 44.8075 449.712C45.3702 451.311 45.844 452.91 46.2587 454.509C46.7029 456.108 47.0583 457.736 47.4433 459.365C48.154 462.622 48.8352 465.879 49.4867 469.136L49.6051 469.669L49.2794 470.202L44.0671 478.433C43.2083 479.795 42.3199 481.157 41.4314 482.519C40.543 483.881 39.6545 485.244 38.7661 486.576L35.6861 484.562Z" fill="#333333"/>
<path d="M35.6861 484.562C36.5745 483.2 37.4926 481.868 38.4107 480.536C39.3287 479.203 40.2172 477.841 41.1649 476.538L46.7325 468.573L46.4956 469.639C46.081 466.353 45.7256 463.036 45.3702 459.72C45.1925 458.062 45.0444 456.404 44.9556 454.746C44.8667 453.087 44.7779 451.4 44.8075 449.712C45.3702 451.311 45.844 452.91 46.2587 454.509C46.7029 456.108 47.0583 457.736 47.4433 459.365C48.154 462.622 48.8352 465.879 49.4867 469.136L49.6051 469.669L49.2794 470.202L44.0671 478.433C43.2083 479.795 42.3199 481.157 41.4314 482.519C40.543 483.881 39.6545 485.244 38.7661 486.576L35.6861 484.562Z" fill="black" fill-opacity="0.6"/>
<path d="M36.6337 487.168C38.0849 486.458 39.5656 485.806 41.0464 485.125C42.5271 484.444 44.0079 483.793 45.4886 483.141L49.9309 481.187L54.4027 479.262L53.6624 480.151L55.1135 475.532C55.5873 473.992 56.0908 472.452 56.5942 470.912C57.6308 467.833 58.6969 464.783 60.0296 461.793C59.6446 465.05 59.0819 468.218 58.4304 471.386C58.1046 472.985 57.7492 474.554 57.3938 476.124L56.3277 480.861L56.2092 481.424L55.6169 481.75L51.2931 484L46.9694 486.191C45.5182 486.931 44.0967 487.672 42.616 488.382C41.1648 489.093 39.7137 489.803 38.2329 490.514L36.6337 487.168Z" fill="#333333"/>
<path d="M36.6337 487.168C38.0849 486.458 39.5656 485.806 41.0464 485.125C42.5271 484.444 44.0079 483.793 45.4886 483.141L49.9309 481.187L54.4027 479.262L53.6624 480.151L55.1135 475.532C55.5873 473.992 56.0908 472.452 56.5942 470.912C57.6308 467.833 58.6969 464.783 60.0296 461.793C59.6446 465.05 59.0819 468.218 58.4304 471.386C58.1046 472.985 57.7492 474.554 57.3938 476.124L56.3277 480.861L56.2092 481.424L55.6169 481.75L51.2931 484L46.9694 486.191C45.5182 486.931 44.0967 487.672 42.616 488.382C41.1648 489.093 39.7137 489.803 38.2329 490.514L36.6337 487.168Z" fill="black" fill-opacity="0.6"/>
<path d="M38.3514 490.336C39.4175 490.662 40.4837 490.988 41.5202 491.314C42.5864 491.639 43.6229 491.965 44.689 492.35C46.7917 493.06 48.8943 493.742 50.997 494.482L51.8262 494.778L52.0039 495.518L53.3366 501.47L54.61 507.421C55.0247 509.405 55.4096 511.418 55.765 513.402C56.1204 515.416 56.4462 517.429 56.6535 519.472C55.8539 517.577 55.1727 515.653 54.4916 513.728C53.8104 511.803 53.1885 509.879 52.5962 507.925L50.8489 502.091L49.1313 496.229L50.1382 497.265C47.9763 496.732 45.844 496.14 43.7117 495.577C42.6456 495.311 41.5794 494.985 40.5133 494.689C39.4472 494.393 38.381 494.097 37.3149 493.771L38.3514 490.336Z" fill="#333333"/>
<path d="M38.3514 490.336C39.4175 490.662 40.4837 490.988 41.5202 491.314C42.5864 491.639 43.6229 491.965 44.689 492.35C46.7917 493.06 48.8943 493.742 50.997 494.482L51.8262 494.778L52.0039 495.518L53.3366 501.47L54.61 507.421C55.0247 509.405 55.4096 511.418 55.765 513.402C56.1204 515.416 56.4462 517.429 56.6535 519.472C55.8539 517.577 55.1727 515.653 54.4916 513.728C53.8104 511.803 53.1885 509.879 52.5962 507.925L50.8489 502.091L49.1313 496.229L50.1382 497.265C47.9763 496.732 45.844 496.14 43.7117 495.577C42.6456 495.311 41.5794 494.985 40.5133 494.689C39.4472 494.393 38.381 494.097 37.3149 493.771L38.3514 490.336Z" fill="black" fill-opacity="0.6"/>
<path d="M38.0553 494.334C38.9141 496.081 39.7137 497.857 40.543 499.634L42.9418 504.993L43.2083 505.585L43.0306 506.118C42.4679 507.954 41.846 509.82 41.2537 511.655C40.6614 513.491 40.0395 515.327 39.4176 517.163C38.7957 518.999 38.1738 520.834 37.463 522.641C36.7522 524.447 36.0415 526.253 35.1826 528.03C35.3603 526.075 35.6861 524.151 36.0415 522.256C36.3969 520.361 36.8115 518.466 37.2557 516.571C37.6999 514.676 38.1145 512.781 38.5588 510.915C39.003 509.02 39.4472 507.155 39.921 505.289L40.0099 506.414L37.3149 501.203C36.4561 499.456 35.5676 497.709 34.7088 495.962L38.0553 494.334Z" fill="#333333"/>
<path d="M38.0553 494.334C38.9141 496.081 39.7137 497.857 40.543 499.634L42.9418 504.993L43.2083 505.585L43.0306 506.118C42.4679 507.954 41.846 509.82 41.2537 511.655C40.6614 513.491 40.0395 515.327 39.4176 517.163C38.7957 518.999 38.1738 520.834 37.463 522.641C36.7522 524.447 36.0415 526.253 35.1826 528.03C35.3603 526.075 35.6861 524.151 36.0415 522.256C36.3969 520.361 36.8115 518.466 37.2557 516.571C37.6999 514.676 38.1145 512.781 38.5588 510.915C39.003 509.02 39.4472 507.155 39.921 505.289L40.0099 506.414L37.3149 501.203C36.4561 499.456 35.5676 497.709 34.7088 495.962L38.0553 494.334Z" fill="black" fill-opacity="0.6"/>
<path d="M30.2665 0H28.46V474.347H30.2665V0Z" fill="#333333"/>
<path d="M30.2665 0H28.46V474.347H30.2665V0Z" fill="black" fill-opacity="0.6"/>
</g>
<defs>
<clipPath id="clip0_12_1013">
<rect width="60" height="528" fill="white"/>
</clipPath>
</defs>
</svg>
