<svg width="302" height="179" viewBox="0 0 302 179" fill="none" xmlns="http://www.w3.org/2000/svg">
<path d="M248.968 96.0201C248.885 96.0201 248.802 96.1104 248.718 96.1104C248.22 96.3812 247.722 96.652 247.307 97.0131L243.654 95.3883L245.398 99.7212C245.149 100.443 244.983 101.165 244.983 101.888L226.47 96.2909C226.47 96.2909 206.877 106.672 207.541 119.129C207.541 119.129 218.998 103.693 227.051 105.047C227.051 105.047 245.979 110.373 252.454 110.644C258.017 106.852 272.047 92.1386 272.047 92.1386C278.439 86.6321 295.375 93.8537 295.375 93.8537C290.311 82.6603 268.56 84.1948 268.56 84.1948L255.028 98.999C254.696 98.3671 254.281 97.7353 253.7 97.2839L253.284 92.5899L250.877 95.9299C250.379 95.8396 249.798 95.8396 249.217 95.8396C249.217 95.9299 249.051 95.9299 248.968 96.0201Z" fill="#333333"/>
<path d="M282.258 24.8881C281.677 24.7979 281.179 24.166 281.013 22.9925C280.93 23.7146 280.764 24.6173 280.681 25.3395C278.356 18.2082 273.707 12.0699 266.069 12.792C268.809 13.6947 270.054 16.9444 271.05 19.6525C274.62 17.125 275.533 21.5482 275.865 24.3465C277.443 23.6244 278.854 24.7979 279.767 26.1519V26.4227C279.601 27.9573 280.515 29.1308 281.677 29.2211C282.756 29.5821 284.001 28.86 284.333 27.3254L284.416 27.0546C285.662 26.1519 287.322 25.52 288.567 26.7838C289.73 24.166 291.971 20.3747 294.545 24.0757C296.288 21.819 298.529 19.2012 301.269 19.3817C294.296 15.9515 288.069 20.0136 283.669 25.9714C283.835 25.2492 284.001 24.3465 284.084 23.7146C283.586 24.6173 282.839 24.9784 282.258 24.8881Z" fill="#333333"/>
<path d="M279.02 129.239C278.356 129.059 277.858 128.337 277.775 126.983C277.609 127.795 277.36 128.788 277.194 129.51C275.367 121.205 270.801 113.713 262.167 113.623C265.073 114.977 266.235 118.768 266.983 121.928C271.216 119.581 271.881 124.545 271.881 127.795C273.79 127.253 275.201 128.698 276.032 130.232L275.949 130.503C275.533 132.218 276.447 133.663 277.775 133.843C279.02 134.385 280.432 133.663 280.93 132.038L281.013 131.767C282.507 130.864 284.416 130.413 285.745 132.038C287.322 129.239 290.228 125.268 292.718 129.691C294.877 127.434 297.699 124.726 300.771 125.268C293.299 120.574 285.828 124.365 280.349 130.413C280.598 129.691 280.847 128.698 281.096 127.885C280.432 129.149 279.601 129.51 279.02 129.239Z" fill="#333333"/>
<path d="M260.175 163.542C259.926 163.361 259.843 163 260.009 162.549C259.843 162.82 259.677 163.181 259.511 163.452C259.76 160.021 258.93 156.591 255.609 155.327C256.605 156.23 256.522 157.855 256.439 159.209C258.349 158.938 258.016 160.924 257.601 162.097C258.349 162.097 258.764 162.91 258.93 163.632L258.847 163.722C258.515 164.354 258.681 164.986 259.179 165.257C259.594 165.618 260.258 165.528 260.59 164.986L260.673 164.896C261.337 164.806 262.084 164.896 262.416 165.618C263.33 164.806 264.907 163.632 265.322 165.708C266.401 165.167 267.813 164.535 268.892 165.167C266.567 162.278 263.33 162.729 260.507 164.264C260.673 163.993 260.922 163.632 261.088 163.452C260.756 163.722 260.341 163.722 260.175 163.542Z" fill="#333333"/>
<path d="M143.783 14.6875C143.534 14.5972 143.285 14.3264 143.202 13.7848C143.119 14.0556 143.036 14.507 143.036 14.8681C142.123 11.5281 140.131 8.54919 136.644 8.72973C137.889 9.18108 138.387 10.7157 138.802 11.9794C140.463 10.8962 140.878 12.9724 140.878 14.2362C141.625 13.9654 142.206 14.507 142.621 15.1389V15.2291C142.455 15.9513 142.87 16.4929 143.451 16.5832C143.949 16.7637 144.531 16.4929 144.697 15.7707V15.6805C145.278 15.3194 146.025 15.0486 146.606 15.6805C147.187 14.507 148.266 12.7919 149.429 14.5972C150.259 13.6043 151.338 12.521 152.666 12.6113C149.512 10.8059 146.606 12.6113 144.448 15.1389C144.531 14.8681 144.614 14.4167 144.697 14.1459C144.364 14.5972 144.032 14.7778 143.783 14.6875Z" fill="#333333"/>
<path d="M66.3272 108.116C64.1688 108.929 61.2631 107.846 58.7726 104.145C59.6028 106.672 60.765 110.102 61.5952 112.72C41.5878 92.4998 15.437 80.494 -9.88354 98.0965C0.908833 95.8398 10.871 104.506 18.6748 112.088C26.8105 96.3814 37.4369 109.651 43.1651 118.949C47.5651 113.352 54.2066 114.616 59.5197 117.414L59.7688 118.227C61.6782 124.004 66.8254 126.261 70.9763 124.094C75.4593 123.282 78.4479 118.046 76.8706 112.269L76.6215 111.366C79.4442 105.769 84.1762 100.444 90.7346 102.159C90.3195 90.875 91.7308 73.453 106.84 80.9454C109.082 69.8422 112.485 56.4823 122.448 51.4272C92.478 53.3229 77.7838 79.7719 72.4706 108.929C71.8065 106.311 70.8102 102.791 70.1461 100.173C70.2291 104.686 68.4857 107.394 66.3272 108.116Z" fill="#FE772D"/>
<path d="M8.54645 22.6311C8.21438 22.0895 8.13136 21.1868 8.79551 20.1035C8.2974 20.5549 7.55023 21.1868 7.05212 21.7284C9.95776 14.236 10.2898 5.84097 3.73139 0.424805C5.30874 3.22316 4.14649 6.83394 3.15027 9.72256C7.63326 10.535 5.47478 14.6874 3.81441 17.2149C5.5578 17.9371 5.88987 19.8327 5.72383 21.6381L5.5578 21.8187C4.39554 22.9019 4.31252 24.5268 5.22573 25.5197C5.88987 26.6932 7.3842 27.0543 8.54645 26.0613L8.7125 25.8808C10.2898 26.1516 12.0332 26.964 12.1993 28.95C14.7728 27.7765 19.0898 26.5127 18.7577 31.3872C21.6633 30.9359 25.1501 30.5748 27.2256 32.9218C23.9048 24.7073 16.3502 23.1727 8.96155 24.4365C9.54268 23.9851 10.2068 23.4435 10.788 22.9922C9.79173 23.3532 8.96155 23.1727 8.54645 22.6311Z" fill="#333333"/>
<path d="M211.941 110.824C211.526 111.186 210.779 111.095 210.032 110.463C210.364 111.005 210.779 111.637 211.111 112.178C205.549 109.019 199.157 108.026 194.508 113.533C196.749 112.359 199.489 113.623 201.564 114.796C202.477 110.824 205.549 113.081 207.375 114.706C208.04 113.171 209.617 113.081 210.945 113.262L211.028 113.442C211.775 114.616 213.021 114.796 213.851 113.984C214.764 113.533 215.179 112.178 214.515 111.005L214.432 110.824C214.764 109.38 215.511 107.936 217.006 107.846C216.341 105.408 215.677 101.436 219.413 102.159C219.33 99.5407 219.33 96.3813 221.239 94.5759C214.681 96.9229 212.938 103.783 213.353 110.554C213.021 110.012 212.689 109.29 212.356 108.748C212.606 109.831 212.356 110.554 211.941 110.824Z" fill="#333333"/>
<path d="M-4.98546 171.756C-5.81565 171.305 -6.39678 170.131 -6.14772 168.236C-6.56281 169.228 -7.14393 170.583 -7.55903 171.575C-8.05714 159.479 -12.4571 147.835 -24.4117 145.036C-20.6759 147.744 -20.0948 153.341 -19.7627 158.035C-13.2873 155.959 -13.7024 163.18 -14.4496 167.694C-11.7099 167.423 -10.1326 169.86 -9.30241 172.298L-9.46845 172.659C-10.4647 174.915 -9.55147 177.172 -7.72507 177.804C-6.23074 178.978 -3.98924 178.346 -2.91001 176.179L-2.74397 175.818C-0.419453 175.096 2.32015 175.006 3.73146 177.533C6.55408 174.103 11.6182 169.499 14.0257 176.36C17.5955 173.832 22.0785 171.034 26.3124 172.659C17.0974 163.903 5.88993 166.972 -3.3251 173.832C-2.82699 172.839 -2.16284 171.575 -1.66473 170.583C-2.91 172.027 -4.07226 172.298 -4.98546 171.756Z" fill="#333333"/>
</svg>
