<svg width="391" height="444" viewBox="0 0 391 444" fill="none" xmlns="http://www.w3.org/2000/svg">
<path d="M52.9629 96.1061C53.0459 96.1061 53.1289 96.1964 53.2119 96.1964C53.71 96.4672 54.2082 96.738 54.6233 97.099L58.2761 95.4742L56.5327 99.8071C56.7817 100.529 56.9478 101.251 56.9478 101.974L75.4608 96.3769C75.4608 96.3769 95.0532 106.758 94.389 119.215C94.389 119.215 82.9325 103.779 74.8797 105.133C74.8797 105.133 55.9515 110.459 49.4761 110.73C43.9139 106.938 29.8838 92.2245 29.8838 92.2245C23.4914 86.7181 6.55566 93.9396 6.55566 93.9396C11.6198 82.7462 33.3706 84.2808 33.3706 84.2808L46.9026 99.085C47.2346 98.4531 47.6497 97.8212 48.2309 97.3698L48.6459 92.6758L51.0535 96.0158C51.5516 95.9255 52.1327 95.9255 52.7138 95.9255C52.7138 96.0158 52.8799 96.0158 52.9629 96.1061Z" fill="#FE772D"/>
<path d="M84.6759 416.021C84.7589 416.021 84.7589 415.931 84.8419 415.931C85.174 415.75 85.5891 415.57 85.9211 415.479L86.6683 412.5L88.1626 415.479C88.6607 415.66 89.0758 415.84 89.4909 416.201L94.7211 402.3C94.7211 402.3 108.751 394.808 114.978 400.675C114.978 400.675 101.861 400.946 99.038 406.452C99.038 406.452 93.4758 420.444 90.7362 424.597C86.3362 426.402 72.4722 428.478 72.4722 428.478C66.7439 430.013 63.0911 443.643 63.0911 443.643C59.5213 435.609 69.8986 422.881 69.8986 422.881L83.5966 421.076C83.4306 420.625 83.2645 420.083 83.2645 419.541L81.0231 417.194H83.8457C84.0117 416.833 84.2608 416.472 84.5098 416.201C84.5929 416.111 84.5929 416.111 84.6759 416.021Z" fill="#333333"/>
<path d="M19.6725 24.9741C20.2536 24.8838 20.7518 24.2519 20.9178 23.0784C21.0008 23.8006 21.1669 24.7033 21.2499 25.4254C23.5744 18.2941 28.2234 12.1558 35.8611 12.878C33.1215 13.7807 31.8762 17.0304 30.88 19.7384C27.3102 17.2109 26.397 21.6341 26.0649 24.4325C24.4876 23.7103 23.0763 24.8838 22.1631 26.2378V26.5087C22.3291 28.0432 21.4159 29.2167 20.2536 29.307C19.1744 29.6681 17.9291 28.9459 17.5971 27.4114L17.514 27.1405C16.2688 26.2378 14.6084 25.606 13.3631 26.8697C12.2009 24.2519 9.95937 20.4606 7.3858 24.1616C5.64242 21.9049 3.40094 19.2871 0.661343 19.4676C7.63488 16.0374 13.8612 20.0995 18.2612 26.0573C18.0952 25.3352 17.9291 24.4325 17.8461 23.8006C18.3442 24.7033 19.0914 25.0643 19.6725 24.9741Z" fill="#333333"/>
<path d="M22.9102 129.325C23.5743 129.145 24.0725 128.423 24.1555 127.069C24.3215 127.881 24.5706 128.874 24.7366 129.596C26.563 121.291 31.129 113.799 39.7629 113.709C36.8573 115.063 35.695 118.854 34.9479 122.014C30.7139 119.667 30.0498 124.631 30.0498 127.881C28.1404 127.339 26.729 128.784 25.8989 130.318L25.9819 130.589C26.397 132.304 25.4838 133.749 24.1555 133.929C22.9102 134.471 21.4989 133.749 21.0008 132.124L20.9178 131.853C19.4235 130.95 17.514 130.499 16.1857 132.124C14.6084 129.325 11.7028 125.353 9.2122 129.777C7.05373 127.52 4.23109 124.812 1.15942 125.354C8.63106 120.659 16.1027 124.451 21.5819 130.499C21.3329 129.777 21.0838 128.784 20.8347 127.971C21.4989 129.235 22.3291 129.596 22.9102 129.325Z" fill="#333333"/>
<path d="M41.7555 163.628C42.0046 163.447 42.0876 163.086 41.9215 162.635C42.0876 162.906 42.2536 163.267 42.4197 163.537C42.1706 160.107 43.0008 156.677 46.3215 155.413C45.3253 156.316 45.4083 157.941 45.4913 159.295C43.5819 159.024 43.914 161.01 44.3291 162.183C43.5819 162.183 43.1668 162.996 43.0008 163.718L43.0838 163.808C43.4159 164.44 43.2499 165.072 42.7517 165.343C42.3367 165.704 41.6725 165.614 41.3404 165.072L41.2574 164.982C40.5933 164.891 39.8461 164.982 39.514 165.704C38.6008 164.891 37.0235 163.718 36.6084 165.794C35.5291 165.253 34.1178 164.621 33.0386 165.253C35.3631 162.364 38.6008 162.815 41.4235 164.35C41.2574 164.079 41.0084 163.718 40.8423 163.537C41.1744 163.808 41.5895 163.808 41.7555 163.628Z" fill="#333333"/>
<path d="M158.147 14.7734C158.396 14.6832 158.645 14.4124 158.728 13.8708C158.811 14.1416 158.894 14.5929 158.894 14.954C159.807 11.614 161.8 8.63513 165.287 8.81567C164.041 9.26701 163.543 10.8016 163.128 12.0654C161.468 10.9821 161.053 13.0583 161.053 14.3221C160.306 14.0513 159.724 14.5929 159.309 15.2248V15.3151C159.475 16.0372 159.06 16.5788 158.479 16.6691C157.981 16.8496 157.4 16.5788 157.234 15.8567V15.7664C156.653 15.4053 155.906 15.1345 155.324 15.7664C154.743 14.5929 153.664 12.8778 152.502 14.6832C151.672 13.6902 150.592 12.607 149.264 12.6973C152.419 10.8919 155.324 12.6973 157.483 15.2248C157.4 14.954 157.317 14.5026 157.234 14.2318C157.566 14.6832 157.898 14.8637 158.147 14.7734Z" fill="#333333"/>
<path d="M235.603 108.202C237.762 109.015 240.667 107.932 243.158 104.231C242.328 106.758 241.165 110.188 240.335 112.806C260.343 92.5858 286.493 80.5799 311.814 98.1825C301.022 95.9258 291.059 104.592 283.256 112.174C275.12 96.4674 264.494 109.737 258.765 119.035C254.365 113.438 247.724 114.702 242.411 117.5L242.162 118.313C240.252 124.09 235.105 126.347 230.954 124.18C226.471 123.368 223.483 118.132 225.06 112.355L225.309 111.452C222.486 105.855 217.754 100.529 211.196 102.245C211.611 90.9609 210.2 73.5389 195.09 81.0313C192.849 69.9282 189.445 56.5683 179.483 51.5132C209.452 53.4088 224.147 79.8578 229.46 109.015C230.124 106.397 231.12 102.877 231.784 100.259C231.701 104.772 233.445 107.48 235.603 108.202Z" fill="#333333"/>
<path d="M293.384 22.717C293.716 22.1754 293.799 21.2727 293.135 20.1895C293.633 20.6408 294.38 21.2727 294.878 21.8143C291.973 14.322 291.641 5.92691 298.199 0.510742C296.622 3.3091 297.784 6.91987 298.78 9.8085C294.297 10.6209 296.456 14.7733 298.116 17.3009C296.373 18.023 296.041 19.9187 296.207 21.7241L296.373 21.9046C297.535 22.9878 297.618 24.6127 296.705 25.6057C296.041 26.7792 294.546 27.1402 293.384 26.1473L293.218 25.9667C291.641 26.2375 289.897 27.05 289.731 29.0359C287.158 27.8624 282.841 26.5986 283.173 31.4732C280.267 31.0218 276.78 30.6607 274.705 33.0077C278.026 24.7932 285.58 23.2586 292.969 24.5224C292.388 24.0711 291.724 23.5295 291.142 23.0781C292.139 23.4392 292.969 23.2586 293.384 22.717Z" fill="#333333"/>
<path d="M337.716 97.0086C338.297 97.3696 339.21 97.1891 340.123 96.1961C339.791 96.9183 339.293 97.9113 338.878 98.6334C345.768 93.6686 354.153 91.5021 360.878 98.0918C357.723 96.828 354.402 98.9042 351.746 100.71C350.002 95.5643 346.267 98.9945 344.108 101.432C343.029 99.5361 341.036 99.5361 339.293 100.078L339.21 100.349C338.38 101.973 336.719 102.334 335.64 101.522C334.312 101.071 333.648 99.3556 334.395 97.6405L334.478 97.3696C333.897 95.5643 332.735 93.6686 330.659 93.8491C331.323 90.5092 331.655 85.1833 326.84 86.6276C326.674 83.1973 326.259 79.0449 323.52 76.9688C332.403 79.1352 335.557 87.8011 335.806 96.828C336.138 96.1059 336.553 95.1129 336.886 94.3908C336.719 95.7448 337.135 96.6475 337.716 97.0086Z" fill="#333333"/>
<path d="M89.989 110.91C90.4041 111.271 91.1513 111.181 91.8984 110.549C91.5664 111.091 91.1513 111.723 90.8192 112.264C96.3814 109.105 102.774 108.112 107.423 113.618C105.181 112.445 102.442 113.709 100.366 114.882C99.4531 110.91 96.3814 113.167 94.555 114.792C93.8909 113.257 92.3135 113.167 90.9852 113.348L90.9022 113.528C90.1551 114.702 88.9098 114.882 88.0796 114.07C87.1664 113.618 86.7513 112.264 87.4154 111.091L87.4985 110.91C87.1664 109.466 86.4192 108.022 84.9249 107.931C85.589 105.494 86.2532 101.522 82.5174 102.245C82.6004 99.6267 82.6004 96.4673 80.691 94.6619C87.2494 97.0089 88.9928 103.869 88.5777 110.64C88.9098 110.098 89.2419 109.376 89.5739 108.834C89.3249 109.917 89.5739 110.64 89.989 110.91Z" fill="#333333"/>
<path d="M376.9 103.057C377.232 103.418 377.814 103.599 378.561 103.328C378.146 103.689 377.564 104.14 377.149 104.411C382.795 103.509 388.44 104.682 390.93 110.82C389.353 109.105 386.696 109.376 384.621 109.647C384.87 105.946 381.715 106.939 379.723 107.751C379.557 106.217 378.312 105.675 377.066 105.494L376.9 105.585C375.987 106.307 374.825 106.036 374.41 105.224C373.746 104.502 373.746 103.238 374.659 102.425L374.825 102.335C374.908 100.981 374.659 99.5367 373.414 98.9951C374.659 97.0994 376.236 93.94 372.915 93.3984C373.663 91.2319 374.493 88.5238 373.331 86.4476C378.229 90.5098 377.98 96.8286 375.821 102.425C376.236 102.064 376.734 101.613 377.149 101.252C376.651 101.974 376.651 102.696 376.9 103.057Z" fill="#333333"/>
<path d="M306.916 171.842C307.746 171.391 308.327 170.217 308.078 168.321C308.493 169.314 309.074 170.668 309.489 171.661C309.988 159.565 314.388 147.921 326.342 145.122C322.606 147.83 322.025 153.427 321.693 158.121C315.218 156.045 315.633 163.266 316.38 167.78C313.64 167.509 312.063 169.946 311.233 172.384L311.399 172.745C312.395 175.001 311.482 177.258 309.655 177.89C308.161 179.064 305.92 178.432 304.84 176.265L304.674 175.904C302.35 175.182 299.61 175.092 298.199 177.619C295.376 174.189 290.312 169.585 287.905 176.446C284.335 173.918 279.852 171.12 275.618 172.745C284.833 163.989 296.04 167.058 305.256 173.918C304.757 172.925 304.093 171.661 303.595 170.668C304.84 172.113 306.003 172.384 306.916 171.842Z" fill="#333333"/>
<path d="M370.01 10.8016C370.259 10.8919 370.591 10.7114 370.84 10.1697C370.757 10.4405 370.674 10.8919 370.674 11.253C372.666 8.54489 375.572 6.64923 378.727 8.27408C377.481 8.18381 376.402 9.44759 375.655 10.4405C374.493 8.72543 373.414 10.4405 372.915 11.7043C372.251 11.0724 371.504 11.3432 370.923 11.7946V11.8849C370.757 12.607 370.176 12.9681 369.678 12.7876C369.097 12.7876 368.681 12.2459 368.764 11.5238V11.4335C368.349 10.8016 367.685 10.26 366.938 10.6211C366.772 9.26705 366.357 7.28112 364.697 8.45462C364.365 7.10058 363.783 5.566 362.538 5.20492C366.108 4.84384 368.183 7.73247 369.263 10.9822C369.346 10.7114 369.346 10.26 369.429 9.9892C369.512 10.4405 369.761 10.8016 370.01 10.8016Z" fill="#333333"/>
</svg>
