<svg width="549" height="444" viewBox="0 0 549 444" fill="none" xmlns="http://www.w3.org/2000/svg">
<path d="M297.704 291.681C296.624 290.868 296.043 289.153 296.707 286.626C295.96 287.889 294.964 289.695 294.217 290.959C295.545 274.259 291.311 257.378 275.289 251.24C280.021 255.663 279.938 263.517 279.523 269.926C288.821 268.391 287.077 278.14 285.251 284.188C289.07 284.369 290.813 288.07 291.56 291.59L291.311 292.042C289.651 294.93 290.481 298.27 292.806 299.534C294.715 301.43 297.87 301.069 299.696 298.27L299.945 297.819C303.266 297.277 307.002 297.638 308.579 301.43C313.062 297.277 320.7 291.861 322.858 301.791C328.171 298.993 334.896 295.923 340.375 299.083C329.168 285.272 313.228 287.348 299.447 294.93C300.277 293.667 301.356 292.042 302.187 290.778C300.443 292.403 298.783 292.493 297.704 291.681Z" fill="#FE772D"/>
<path d="M337.968 95.9767C337.885 95.9767 337.802 96.067 337.718 96.067C337.22 96.3378 336.722 96.6086 336.307 96.9696L332.654 95.3448L334.398 99.6777C334.149 100.4 333.983 101.122 333.983 101.844L315.47 96.2475C315.47 96.2475 295.877 106.628 296.541 119.086C296.541 119.086 307.998 103.65 316.051 105.004C316.051 105.004 334.979 110.33 341.454 110.6C347.017 106.809 361.047 92.0951 361.047 92.0951C367.439 86.5887 384.375 93.8102 384.375 93.8102C379.311 82.6168 357.56 84.1514 357.56 84.1514L344.028 98.9556C343.696 98.3237 343.281 97.6918 342.7 97.2405L342.284 92.5464L339.877 95.8864C339.379 95.7961 338.798 95.7961 338.217 95.7961C338.217 95.8864 338.051 95.8864 337.968 95.9767Z" fill="#333333"/>
<path d="M514.381 339.614C514.298 339.614 514.215 339.614 514.132 339.524C513.634 339.433 513.136 339.433 512.721 339.433L510.812 336.274L510.064 340.336C509.566 340.697 509.068 341.149 508.736 341.69L498.027 327.428C498.027 327.428 479.016 324.088 473.702 333.476C473.702 333.476 489.144 328.601 494.291 334.017C494.291 334.017 505.415 348.28 510.064 352.071C515.793 352.432 532.811 349.453 532.811 349.453C539.951 349.002 548.834 363.535 548.834 363.535C550.328 352.703 533.974 341.78 533.974 341.78L517.287 345.03C517.37 344.398 517.287 343.676 517.121 343.044L519.03 339.433L515.71 340.517C515.378 340.156 514.962 339.885 514.547 339.614C514.547 339.704 514.464 339.704 514.381 339.614Z" fill="#333333"/>
<path d="M306.255 415.892C306.172 415.892 306.172 415.802 306.089 415.802C305.756 415.621 305.341 415.44 305.009 415.35L304.262 412.371L302.768 415.35C302.27 415.531 301.855 415.711 301.439 416.072L296.209 402.171C296.209 402.171 282.179 394.679 275.953 400.546C275.953 400.546 289.07 400.817 291.892 406.323C291.892 406.323 297.455 420.315 300.194 424.467C304.594 426.273 318.458 428.349 318.458 428.349C324.187 429.884 327.839 443.514 327.839 443.514C331.409 435.48 321.032 422.752 321.032 422.752L307.334 420.947C307.5 420.496 307.666 419.954 307.666 419.412L309.907 417.065H307.085C306.919 416.704 306.67 416.343 306.421 416.072C306.338 415.982 306.338 415.982 306.255 415.892Z" fill="#333333"/>
<path d="M127.101 384.388C126.935 384.478 126.769 384.478 126.686 384.568C125.856 384.929 125.192 385.471 124.527 386.013L118.965 383.575L121.705 390.165C121.29 391.248 121.124 392.422 121.124 393.505L92.7314 384.929C92.7314 384.929 62.5958 400.907 63.675 420.044C63.675 420.044 81.2749 396.303 93.6446 398.38C93.6446 398.38 122.701 406.504 132.746 406.955C141.297 401.178 162.799 378.52 162.799 378.52C172.595 370.035 198.663 381.228 198.663 381.228C190.859 364.077 157.403 366.424 157.403 366.424L136.648 389.172C136.15 388.179 135.486 387.276 134.656 386.554L133.992 379.333L130.256 384.478C129.426 384.388 128.595 384.298 127.765 384.388C127.433 384.298 127.267 384.298 127.101 384.388Z" fill="#333333"/>
<path d="M371.258 24.8447C370.677 24.7544 370.179 24.1225 370.013 22.949C369.93 23.6712 369.764 24.5739 369.681 25.296C367.356 18.1647 362.707 12.0264 355.069 12.7486C357.809 13.6513 359.054 16.901 360.05 19.6091C363.62 17.0815 364.533 21.5047 364.865 24.3031C366.443 23.5809 367.854 24.7544 368.767 26.1085V26.3793C368.601 27.9138 369.515 29.0873 370.677 29.1776C371.756 29.5387 373.001 28.8165 373.333 27.282L373.416 27.0111C374.662 26.1085 376.322 25.4766 377.567 26.7403C378.73 24.1225 380.971 20.3312 383.545 24.0323C385.288 21.7755 387.529 19.1577 390.269 19.3382C383.296 15.908 377.069 19.9701 372.669 25.9279C372.835 25.2058 373.001 24.3031 373.084 23.6712C372.586 24.5739 371.839 24.9349 371.258 24.8447Z" fill="#333333"/>
<path d="M368.02 129.196C367.356 129.015 366.858 128.293 366.775 126.939C366.609 127.752 366.36 128.745 366.194 129.467C364.367 121.162 359.801 113.67 351.167 113.579C354.073 114.933 355.235 118.725 355.983 121.884C360.216 119.537 360.881 124.502 360.881 127.752C362.79 127.21 364.201 128.654 365.032 130.189L364.949 130.46C364.533 132.175 365.447 133.619 366.775 133.8C368.02 134.341 369.432 133.619 369.93 131.994L370.013 131.724C371.507 130.821 373.416 130.369 374.745 131.994C376.322 129.196 379.228 125.224 381.718 129.647C383.877 127.391 386.699 124.682 389.771 125.224C382.299 120.53 374.828 124.321 369.349 130.369C369.598 129.647 369.847 128.654 370.096 127.842C369.432 129.106 368.601 129.467 368.02 129.196Z" fill="#333333"/>
<path d="M349.175 163.498C348.926 163.318 348.843 162.957 349.009 162.505C348.843 162.776 348.677 163.137 348.511 163.408C348.76 159.978 347.93 156.547 344.609 155.284C345.605 156.186 345.522 157.811 345.439 159.165C347.349 158.894 347.016 160.88 346.601 162.054C347.349 162.054 347.764 162.866 347.93 163.588L347.847 163.679C347.515 164.311 347.681 164.943 348.179 165.213C348.594 165.574 349.258 165.484 349.59 164.943L349.673 164.852C350.337 164.762 351.084 164.852 351.416 165.574C352.33 164.762 353.907 163.588 354.322 165.665C355.401 165.123 356.813 164.491 357.892 165.123C355.567 162.234 352.33 162.686 349.507 164.22C349.673 163.95 349.922 163.588 350.088 163.408C349.756 163.679 349.341 163.679 349.175 163.498Z" fill="#333333"/>
<path d="M232.783 14.6441C232.534 14.5538 232.285 14.283 232.202 13.7414C232.119 14.0122 232.036 14.4635 232.036 14.8246C231.123 11.4846 229.131 8.50573 225.644 8.68627C226.889 9.13762 227.387 10.6722 227.802 11.936C229.463 10.8527 229.878 12.9289 229.878 14.1927C230.625 13.9219 231.206 14.4635 231.621 15.0954V15.1857C231.455 15.9078 231.87 16.4494 232.451 16.5397C232.949 16.7203 233.531 16.4494 233.697 15.7273V15.637C234.278 15.2759 235.025 15.0051 235.606 15.637C236.187 14.4635 237.266 12.7484 238.429 14.5538C239.259 13.5608 240.338 12.4776 241.666 12.5679C238.512 10.7625 235.606 12.5679 233.448 15.0954C233.531 14.8246 233.614 14.3732 233.697 14.1024C233.364 14.5538 233.032 14.7343 232.783 14.6441Z" fill="#333333"/>
<path d="M155.327 108.073C153.169 108.885 150.263 107.802 147.773 104.101C148.603 106.629 149.765 110.059 150.595 112.677C130.588 92.4564 104.437 80.4505 79.1165 98.0531C89.9088 95.7964 99.871 104.462 107.675 112.045C115.811 96.338 126.437 109.608 132.165 118.905C136.565 113.309 143.207 114.572 148.52 117.371L148.769 118.183C150.678 123.96 155.825 126.217 159.976 124.051C164.459 123.238 167.448 118.003 165.871 112.225L165.622 111.323C168.444 105.726 173.176 100.4 179.735 102.115C179.32 90.8315 180.731 73.4095 195.84 80.9019C198.082 69.7988 201.485 56.4389 211.448 51.3838C181.478 53.2794 166.784 79.7284 161.471 108.885C160.806 106.268 159.81 102.747 159.146 100.129C159.229 104.643 157.486 107.351 155.327 108.073Z" fill="#333333"/>
<path d="M177.493 254.49C176.331 255.031 174.753 254.67 173.176 252.865C173.757 254.219 174.587 255.934 175.169 257.288C163.214 247.629 148.437 242.845 135.652 254.038C141.38 252.143 147.274 256.115 151.923 259.725C155.493 250.698 161.886 257.198 165.538 261.802C167.614 258.462 171.267 258.732 174.338 259.906L174.504 260.357C175.833 263.336 178.821 264.239 180.897 262.794C183.304 262.072 184.633 259.093 183.47 256.024L183.304 255.573C184.55 252.323 186.791 249.164 190.444 249.705C189.614 243.657 189.365 234.089 197.999 237.158C198.58 231.02 199.659 223.527 204.806 220.097C188.701 223.076 182.225 238.331 180.98 254.49C180.482 253.136 179.735 251.33 179.236 249.886C179.403 252.414 178.655 253.948 177.493 254.49Z" fill="#333333"/>
<path d="M342.035 250.428C341.454 251.15 340.375 251.421 338.964 250.699C339.711 251.331 340.624 252.233 341.371 252.865C331.492 250.609 321.032 252.143 316.051 263.066C319.122 260.087 323.771 260.809 327.59 261.621C327.424 254.942 333.152 256.927 336.556 258.733C336.971 256.025 339.296 255.122 341.454 254.851L341.703 255.032C343.281 256.476 345.356 256.115 346.269 254.58C347.598 253.407 347.598 251.15 346.103 249.616L345.854 249.345C345.771 246.998 346.352 244.29 348.76 243.477C346.684 239.957 344.028 234.089 350.171 233.367C348.926 229.395 347.681 224.43 349.922 220.729C340.707 227.59 340.707 239.054 344.111 249.345C343.447 248.623 342.534 247.72 341.869 247.088C342.7 248.442 342.617 249.706 342.035 250.428Z" fill="#333333"/>
<path d="M97.5465 22.5876C97.2144 22.046 97.1314 21.1433 97.7955 20.0601C97.2974 20.5114 96.5502 21.1433 96.0521 21.6849C98.9578 14.1926 99.2898 5.79752 92.7314 0.381348C94.3087 3.1797 93.1465 6.79048 92.1503 9.6791C96.6333 10.4915 94.4748 14.6439 92.8144 17.1715C94.5578 17.8936 94.8899 19.7893 94.7238 21.5947L94.5578 21.7752C93.3955 22.8584 93.3125 24.4833 94.2257 25.4763C94.8899 26.6498 96.3842 27.0108 97.5465 26.0179L97.7125 25.8373C99.2898 26.1081 101.033 26.9206 101.199 28.9065C103.773 27.733 108.09 26.4692 107.758 31.3438C110.663 30.8924 114.15 30.5313 116.226 32.8784C112.905 24.6638 105.35 23.1293 97.9615 24.393C98.5427 23.9417 99.2068 23.4001 99.788 22.9487C98.7917 23.3098 97.9615 23.1293 97.5465 22.5876Z" fill="#333333"/>
<path d="M53.2147 96.8792C52.6336 97.2402 51.7204 97.0597 50.8072 96.0668C51.1393 96.7889 51.6374 97.7819 52.0525 98.504C45.1619 93.5392 36.7771 91.3727 30.0526 97.9624C33.2073 96.6986 36.528 98.7748 39.1846 100.58C40.928 95.4349 44.6638 98.8651 46.8223 101.302C47.9015 99.4067 49.894 99.4067 51.6374 99.9483L51.7204 100.219C52.5506 101.844 54.2109 102.205 55.2902 101.393C56.6185 100.941 57.2826 99.2262 56.5355 97.5111L56.4524 97.2402C57.0336 95.4349 58.1958 93.5392 60.2713 93.7197C59.6071 90.3798 59.2751 85.0539 64.0901 86.4982C64.2562 83.0679 64.6712 78.9156 67.4109 76.8394C58.5279 79.0058 55.3732 87.6717 55.1241 96.6986C54.7921 95.9765 54.377 94.9835 54.0449 94.2614C54.2109 95.6154 53.7958 96.5181 53.2147 96.8792Z" fill="#FE772D"/>
<path d="M300.941 110.781C300.526 111.142 299.779 111.052 299.032 110.42C299.364 110.962 299.779 111.593 300.111 112.135C294.549 108.976 288.157 107.983 283.508 113.489C285.749 112.316 288.489 113.579 290.564 114.753C291.477 110.781 294.549 113.038 296.375 114.663C297.04 113.128 298.617 113.038 299.945 113.218L300.028 113.399C300.775 114.572 302.021 114.753 302.851 113.94C303.764 113.489 304.179 112.135 303.515 110.962L303.432 110.781C303.764 109.337 304.511 107.892 306.006 107.802C305.341 105.365 304.677 101.393 308.413 102.115C308.33 99.4973 308.33 96.3379 310.239 94.5325C303.681 96.8795 301.938 103.74 302.353 110.51C302.021 109.969 301.689 109.246 301.356 108.705C301.606 109.788 301.356 110.51 300.941 110.781Z" fill="#333333"/>
<path d="M14.0301 102.928C13.698 103.289 13.1169 103.469 12.3697 103.199C12.7848 103.56 13.3659 104.011 13.781 104.282C8.13579 103.379 2.49055 104.553 0 110.691C1.57735 108.976 4.23393 109.247 6.30939 109.517C6.06034 105.816 9.21503 106.809 11.2075 107.622C11.3735 106.087 12.6188 105.546 13.8641 105.365L14.0301 105.455C14.9433 106.178 16.1056 105.907 16.5206 105.094C17.1848 104.372 17.1848 103.108 16.2716 102.296L16.1056 102.206C16.0225 100.852 16.2716 99.4073 17.5169 98.8657C16.2716 96.97 14.6942 93.8106 18.015 93.269C17.2678 91.1025 16.4376 88.3944 17.5999 86.3182C12.7018 90.3804 12.9509 96.6992 15.1093 102.296C14.6942 101.935 14.1961 101.483 13.781 101.122C14.2791 101.845 14.2791 102.567 14.0301 102.928Z" fill="#333333"/>
<path d="M84.0145 171.713C83.1844 171.261 82.6032 170.088 82.8523 168.192C82.4372 169.185 81.8561 170.539 81.441 171.532C80.9429 159.436 76.5429 147.791 64.5883 144.993C68.3241 147.701 68.9052 153.298 69.2373 157.992C75.7127 155.915 75.2976 163.137 74.5504 167.65C77.2901 167.38 78.8674 169.817 79.6976 172.254L79.5315 172.615C78.5353 174.872 79.4485 177.129 81.2749 177.761C82.7693 178.934 85.0108 178.302 86.09 176.136L86.256 175.775C88.5805 175.053 91.3201 174.962 92.7315 177.49C95.5541 174.06 100.618 169.456 103.026 176.316C106.596 173.789 111.079 170.99 115.312 172.615C106.097 163.859 94.8899 166.928 85.6749 173.789C86.173 172.796 86.8372 171.532 87.3353 170.539C86.09 171.983 84.9277 172.254 84.0145 171.713Z" fill="#333333"/>
<path d="M20.9207 10.6722C20.6716 10.7625 20.3395 10.582 20.0905 10.0403C20.1735 10.3112 20.2565 10.7625 20.2565 11.1236C18.2641 8.4155 15.3584 6.51984 12.2037 8.14469C13.449 8.05442 14.5282 9.31819 15.2754 10.3112C16.4377 8.59604 17.5169 10.3112 18.015 11.5749C18.6792 10.943 19.4263 11.2138 20.0075 11.6652V11.7555C20.1735 12.4776 20.7546 12.8387 21.2527 12.6582C21.8339 12.6582 22.2489 12.1165 22.1659 11.3944V11.3041C22.581 10.6722 23.2452 10.1306 23.9923 10.4917C24.1584 9.13765 24.5735 7.15172 26.2338 8.32523C26.5659 6.97118 27.147 5.4366 28.3923 5.07553C24.8225 4.71445 22.7471 7.60307 21.6678 10.8528C21.5848 10.582 21.5848 10.1306 21.5018 9.85981C21.4188 10.3112 21.1697 10.6722 20.9207 10.6722Z" fill="#333333"/>
<path d="M221.41 322.643C220.995 323.004 220.248 322.914 219.5 322.282C219.832 322.824 220.331 323.456 220.663 323.997C215.1 320.928 208.625 320.116 204.059 325.803C206.3 324.539 209.04 325.713 211.199 326.886C212.029 322.824 215.183 324.99 217.01 326.706C217.674 325.171 219.168 324.99 220.497 325.171L220.58 325.351C221.327 326.435 222.655 326.615 223.402 325.803C224.315 325.261 224.647 323.907 223.983 322.734L223.9 322.553C224.232 321.109 224.897 319.664 226.474 319.574C225.727 317.137 224.98 313.165 228.715 313.797C228.549 311.179 228.466 308.02 230.376 306.214C223.9 308.742 222.24 315.602 222.821 322.373C222.489 321.831 222.074 321.109 221.825 320.657C222.074 321.56 221.825 322.282 221.41 322.643Z" fill="#333333"/>
</svg>
